# xmcd
#
# Track frame offsets: 
#        150
#        12309
#        23871
#        37008
#        50362
#        64022
#        78488
#        92549
#        112684
#        122470
#        134701
#        148189
#        163808
#        176169
#        189348
#
# Disc length: 2675 seconds
#
# Revision: 4
# Processed by: cddbd v1.5.2PL0 Copyright (c) Steve Scherf et al.
# Submitted via: ExactAudioCopy v1.0b3
#
DISCID=c90a710f
DTITLE=Leningrad - Для миллионов
DYEAR=2003
DGENRE=Punk
TTITLE0=Меня зовут Шнур
TTITLE1=Май
TTITLE2=Хуйня
TTITLE3=Менеджер
TTITLE4=Распиздяй
TTITLE5=Ole-Ole
TTITLE6=К тебе бегу
TTITLE7=Зина
TTITLE8=Хуямба
TTITLE9=Ноу Ноу Фьюча
TTITLE10=Папа был прав
TTITLE11=Babu budu
TTITLE12=Raspizdiaj (Radio Version)
TTITLE13=Дороги
TTITLE14=Leningrad (Bonus Trek)
EXTD=
EXTT0=
EXTT1=
EXTT2=
EXTT3=
EXTT4=
EXTT5=
EXTT6=
EXTT7=
EXTT8=
EXTT9=
EXTT10=
EXTT11=
EXTT12=
EXTT13=
EXTT14=
PLAYORDER=
